<?xml version="1.0" encoding="UTF-8" standalone="no"?>
<!-- Created with Inkscape (http://www.inkscape.org/) -->

<svg
   xmlns:dc="http://purl.org/dc/elements/1.1/"
   xmlns:cc="http://creativecommons.org/ns#"
   xmlns:rdf="http://www.w3.org/1999/02/22-rdf-syntax-ns#"
   xmlns:svg="http://www.w3.org/2000/svg"
   xmlns="http://www.w3.org/2000/svg"
   xmlns:sodipodi="http://sodipodi.sourceforge.net/DTD/sodipodi-0.dtd"
   xmlns:inkscape="http://www.inkscape.org/namespaces/inkscape"
   id="svg2"
   version="1.1"
   inkscape:version="0.91 r13725"
   xml:space="preserve"
   width="743.75"
   height="1052.5"
   viewBox="0 0 743.75 1052.5"
   sodipodi:docname="bcg_spec.svg"><metadata
     id="metadata8"><rdf:RDF><cc:Work
         rdf:about=""><dc:format>image/svg+xml</dc:format><dc:type
           rdf:resource="http://purl.org/dc/dcmitype/StillImage" /><dc:title></dc:title></cc:Work></rdf:RDF></metadata><defs
     id="defs6"><clipPath
       clipPathUnits="userSpaceOnUse"
       id="clipPath18"><path
         d="m 12,12.32001 571,0 0,817.36 -571,0 0,-817.36 z"
         id="path20"
         inkscape:connector-curvature="0" /></clipPath><clipPath
       clipPathUnits="userSpaceOnUse"
       id="clipPath622"><path
         d="m 356.04,717.92 2.76,0 0,9 -2.76,0 0,-9 z"
         id="path624"
         inkscape:connector-curvature="0" /></clipPath><clipPath
       clipPathUnits="userSpaceOnUse"
       id="clipPath634"><path
         d="m 12,12.32001 571,0 0,817.36 -571,0 0,-817.36 z"
         id="path636"
         inkscape:connector-curvature="0" /></clipPath></defs><sodipodi:namedview
     pagecolor="#ffffff"
     bordercolor="#666666"
     borderopacity="1"
     objecttolerance="10"
     gridtolerance="10"
     guidetolerance="10"
     inkscape:pageopacity="0"
     inkscape:pageshadow="2"
     inkscape:window-width="1920"
     inkscape:window-height="955"
     id="namedview4"
     showgrid="false"
     inkscape:zoom="1.2684253"
     inkscape:cx="382.82934"
     inkscape:cy="746.87925"
     inkscape:window-x="0"
     inkscape:window-y="0"
     inkscape:window-maximized="1"
     inkscape:current-layer="g16" /><g
     id="g10"
     inkscape:groupmode="layer"
     inkscape:label="bcg_spec"
     transform="matrix(1.25,0,0,-1.25,0,1052.5)"><g
       id="g12" /><g
       id="g14"
       transform="translate(51.037641,267.1519)"><g
         id="g16"
         clip-path="url(#clipPath18)"
         transform="translate(-123.61785,-209.39349)"><path
           d="m 139.8,743.84 0,-163.56 0,163.56"
           style="fill:#ffffff;fill-opacity:1;fill-rule:evenodd;stroke:none"
           id="path252"
           inkscape:connector-curvature="0" /><path
           d="m 139.8,580.28 0,163.56"
           style="fill:none;stroke:#000000;stroke-width:0.75700003;stroke-linecap:square;stroke-linejoin:miter;stroke-miterlimit:10;stroke-dasharray:none;stroke-opacity:1"
           id="path254"
           inkscape:connector-curvature="0" /><path
           d="m 137.58,580.28 2.22,0 -2.22,0"
           style="fill:#ffffff;fill-opacity:1;fill-rule:evenodd;stroke:none"
           id="path256"
           inkscape:connector-curvature="0" /><path
           d="m 139.8,580.28 -2.22,0"
           style="fill:none;stroke:#000000;stroke-width:0.75700003;stroke-linecap:square;stroke-linejoin:miter;stroke-miterlimit:10;stroke-dasharray:none;stroke-opacity:1"
           id="path258"
           inkscape:connector-curvature="0" /><path
           d="m 137.58,596.9 2.22,0 -2.22,0"
           style="fill:#ffffff;fill-opacity:1;fill-rule:evenodd;stroke:none"
           id="path260"
           inkscape:connector-curvature="0" /><path
           d="m 139.8,596.9 -2.22,0"
           style="fill:none;stroke:#000000;stroke-width:0.75700003;stroke-linecap:square;stroke-linejoin:miter;stroke-miterlimit:10;stroke-dasharray:none;stroke-opacity:1"
           id="path262"
           inkscape:connector-curvature="0" /><path
           d="m 137.58,612.86 2.22,0 -2.22,0"
           style="fill:#ffffff;fill-opacity:1;fill-rule:evenodd;stroke:none"
           id="path264"
           inkscape:connector-curvature="0" /><path
           d="m 139.8,612.86 -2.22,0"
           style="fill:none;stroke:#000000;stroke-width:0.75700003;stroke-linecap:square;stroke-linejoin:miter;stroke-miterlimit:10;stroke-dasharray:none;stroke-opacity:1"
           id="path266"
           inkscape:connector-curvature="0" /><path
           d="m 137.58,629.48 2.22,0 -2.22,0"
           style="fill:#ffffff;fill-opacity:1;fill-rule:evenodd;stroke:none"
           id="path268"
           inkscape:connector-curvature="0" /><path
           d="m 139.8,629.48 -2.22,0"
           style="fill:none;stroke:#000000;stroke-width:0.75700003;stroke-linecap:square;stroke-linejoin:miter;stroke-miterlimit:10;stroke-dasharray:none;stroke-opacity:1"
           id="path270"
           inkscape:connector-curvature="0" /><path
           d="m 137.58,645.38 2.22,0 -2.22,0"
           style="fill:#ffffff;fill-opacity:1;fill-rule:evenodd;stroke:none"
           id="path272"
           inkscape:connector-curvature="0" /><path
           d="m 139.8,645.38 -2.22,0"
           style="fill:none;stroke:#000000;stroke-width:0.75700003;stroke-linecap:square;stroke-linejoin:miter;stroke-miterlimit:10;stroke-dasharray:none;stroke-opacity:1"
           id="path274"
           inkscape:connector-curvature="0" /><path
           d="m 137.58,662.06 2.22,0 -2.22,0"
           style="fill:#ffffff;fill-opacity:1;fill-rule:evenodd;stroke:none"
           id="path276"
           inkscape:connector-curvature="0" /><path
           d="m 139.8,662.06 -2.22,0"
           style="fill:none;stroke:#000000;stroke-width:0.75700003;stroke-linecap:square;stroke-linejoin:miter;stroke-miterlimit:10;stroke-dasharray:none;stroke-opacity:1"
           id="path278"
           inkscape:connector-curvature="0" /><path
           d="m 137.58,678.74 2.22,0 -2.22,0"
           style="fill:#ffffff;fill-opacity:1;fill-rule:evenodd;stroke:none"
           id="path280"
           inkscape:connector-curvature="0" /><path
           d="m 139.8,678.74 -2.22,0"
           style="fill:none;stroke:#000000;stroke-width:0.75700003;stroke-linecap:square;stroke-linejoin:miter;stroke-miterlimit:10;stroke-dasharray:none;stroke-opacity:1"
           id="path282"
           inkscape:connector-curvature="0" /><path
           d="m 137.58,694.64 2.22,0 -2.22,0"
           style="fill:#ffffff;fill-opacity:1;fill-rule:evenodd;stroke:none"
           id="path284"
           inkscape:connector-curvature="0" /><path
           d="m 139.8,694.64 -2.22,0"
           style="fill:none;stroke:#000000;stroke-width:0.75700003;stroke-linecap:square;stroke-linejoin:miter;stroke-miterlimit:10;stroke-dasharray:none;stroke-opacity:1"
           id="path286"
           inkscape:connector-curvature="0" /><path
           d="m 137.58,711.32 2.22,0 -2.22,0"
           style="fill:#ffffff;fill-opacity:1;fill-rule:evenodd;stroke:none"
           id="path288"
           inkscape:connector-curvature="0" /><path
           d="m 139.8,711.32 -2.22,0"
           style="fill:none;stroke:#000000;stroke-width:0.75700003;stroke-linecap:square;stroke-linejoin:miter;stroke-miterlimit:10;stroke-dasharray:none;stroke-opacity:1"
           id="path290"
           inkscape:connector-curvature="0" /><path
           d="m 137.58,727.22 2.22,0 -2.22,0"
           style="fill:#ffffff;fill-opacity:1;fill-rule:evenodd;stroke:none"
           id="path292"
           inkscape:connector-curvature="0" /><path
           d="m 139.8,727.22 -2.22,0"
           style="fill:none;stroke:#000000;stroke-width:0.75700003;stroke-linecap:square;stroke-linejoin:miter;stroke-miterlimit:10;stroke-dasharray:none;stroke-opacity:1"
           id="path294"
           inkscape:connector-curvature="0" /><path
           d="m 137.58,743.84 2.22,0 -2.22,0"
           style="fill:#ffffff;fill-opacity:1;fill-rule:evenodd;stroke:none"
           id="path296"
           inkscape:connector-curvature="0" /><path
           d="m 139.8,743.84 -2.22,0"
           style="fill:none;stroke:#000000;stroke-width:0.75700003;stroke-linecap:square;stroke-linejoin:miter;stroke-miterlimit:10;stroke-dasharray:none;stroke-opacity:1"
           id="path298"
           inkscape:connector-curvature="0" /><path
           d="m 139.8,580.28 351.18,0 -351.18,0"
           style="fill:#ffffff;fill-opacity:1;fill-rule:evenodd;stroke:none"
           id="path300"
           inkscape:connector-curvature="0" /><path
           d="m 490.98,580.28 -351.18,0"
           style="fill:none;stroke:#000000;stroke-width:0.75700003;stroke-linecap:square;stroke-linejoin:miter;stroke-miterlimit:10;stroke-dasharray:none;stroke-opacity:1"
           id="path302"
           inkscape:connector-curvature="0" /><path
           d="m 139.8,578 0,2.28 0,-2.28"
           style="fill:#ffffff;fill-opacity:1;fill-rule:evenodd;stroke:none"
           id="path304"
           inkscape:connector-curvature="0" /><path
           d="m 139.8,580.28 0,-2.28"
           style="fill:none;stroke:#000000;stroke-width:0.75700003;stroke-linecap:square;stroke-linejoin:miter;stroke-miterlimit:10;stroke-dasharray:none;stroke-opacity:1"
           id="path306"
           inkscape:connector-curvature="0" /><path
           d="m 198.12,578 0,2.28 0,-2.28"
           style="fill:#ffffff;fill-opacity:1;fill-rule:evenodd;stroke:none"
           id="path308"
           inkscape:connector-curvature="0" /><path
           d="m 198.12,580.28 0,-2.28"
           style="fill:none;stroke:#000000;stroke-width:0.75700003;stroke-linecap:square;stroke-linejoin:miter;stroke-miterlimit:10;stroke-dasharray:none;stroke-opacity:1"
           id="path310"
           inkscape:connector-curvature="0" /><path
           d="m 257.1,578 0,2.28 0,-2.28"
           style="fill:#ffffff;fill-opacity:1;fill-rule:evenodd;stroke:none"
           id="path312"
           inkscape:connector-curvature="0" /><path
           d="m 257.1,580.28 0,-2.28"
           style="fill:none;stroke:#000000;stroke-width:0.75700003;stroke-linecap:square;stroke-linejoin:miter;stroke-miterlimit:10;stroke-dasharray:none;stroke-opacity:1"
           id="path314"
           inkscape:connector-curvature="0" /><path
           d="m 315.42,578 0,2.28 0,-2.28"
           style="fill:#ffffff;fill-opacity:1;fill-rule:evenodd;stroke:none"
           id="path316"
           inkscape:connector-curvature="0" /><path
           d="m 315.42,580.28 0,-2.28"
           style="fill:none;stroke:#000000;stroke-width:0.75700003;stroke-linecap:square;stroke-linejoin:miter;stroke-miterlimit:10;stroke-dasharray:none;stroke-opacity:1"
           id="path318"
           inkscape:connector-curvature="0" /><path
           d="m 373.68,578 0,2.28 0,-2.28"
           style="fill:#ffffff;fill-opacity:1;fill-rule:evenodd;stroke:none"
           id="path320"
           inkscape:connector-curvature="0" /><path
           d="m 373.68,580.28 0,-2.28"
           style="fill:none;stroke:#000000;stroke-width:0.75700003;stroke-linecap:square;stroke-linejoin:miter;stroke-miterlimit:10;stroke-dasharray:none;stroke-opacity:1"
           id="path322"
           inkscape:connector-curvature="0" /><path
           d="m 432.66,578 0,2.28 0,-2.28"
           style="fill:#ffffff;fill-opacity:1;fill-rule:evenodd;stroke:none"
           id="path324"
           inkscape:connector-curvature="0" /><path
           d="m 432.66,580.28 0,-2.28"
           style="fill:none;stroke:#000000;stroke-width:0.75700003;stroke-linecap:square;stroke-linejoin:miter;stroke-miterlimit:10;stroke-dasharray:none;stroke-opacity:1"
           id="path326"
           inkscape:connector-curvature="0" /><path
           d="m 490.98,578 0,2.28 0,-2.28"
           style="fill:#ffffff;fill-opacity:1;fill-rule:evenodd;stroke:none"
           id="path328"
           inkscape:connector-curvature="0" /><path
           d="m 490.98,580.28 0,-2.28"
           style="fill:none;stroke:#000000;stroke-width:0.75700003;stroke-linecap:square;stroke-linejoin:miter;stroke-miterlimit:10;stroke-dasharray:none;stroke-opacity:1"
           id="path330"
           inkscape:connector-curvature="0" /><path
           d="m 151.2,656.78 -11.4,-8.34 m 11.4,8.34 6,4.5 6.06,3.84 5.34,3.78 6.06,3 6,2.28 6.06,0.78 5.34,0.72 6.06,-0.72 6,-1.56 6.06,-3 5.34,-3.78 6.06,-4.56 6,-5.28 6.06,-5.34 5.34,-6.06 6.06,-6.06 6,-5.28 6.06,-5.28 5.34,-5.34 6.06,-5.28 6,-4.56 6.06,-3.78 m 11.4,-6.84 -11.4,6.84 m 11.4,-6.84 6,-3 6.06,-2.28 6.06,-1.5 5.34,-1.5 m 11.34,-2.28 -11.34,2.28 m 11.34,-2.28 6.06,-0.78 6,-0.78 5.34,-0.72 6.06,-0.78 17.4,0 6.06,-0.72 12.06,0 m 11.4,0 -11.4,0 m 11.4,0 12.06,0 m 11.4,0 -11.4,0 m 11.4,0 6.06,0 6,-0.78 m 11.4,0 -11.4,0 m 11.4,0 12.06,0 m 11.4,0 -11.4,0 m 11.4,0 12.06,0 m 11.4,0 -11.4,0"
           style="fill:none;stroke:#000080;stroke-width:0.75700003;stroke-linecap:square;stroke-linejoin:miter;stroke-miterlimit:10;stroke-dasharray:none;stroke-opacity:1"
           id="path332"
           inkscape:connector-curvature="0" /><path
           d="m 151.2,656.78 -11.4,-9.12 m 11.4,9.12 6,4.5 6.06,3.84 5.34,3 6.06,3.06 6,2.22 6.06,1.56 5.34,0 6.06,-0.78 6,-1.5 6.06,-3.06 5.34,-3.78 6.06,-4.56 6,-5.28 6.06,-5.28 5.34,-5.34 6.06,-6.06 6,-5.28 6.06,-5.28 5.34,-5.34 6.06,-5.28 6,-4.56 6.06,-3.78 m 11.4,-6.84 -11.4,6.84 m 11.4,-6.84 6,-3 6.06,-2.28 6.06,-1.5 5.34,-1.5 m 11.34,-2.28 -11.34,2.28 m 11.34,-2.28 6.06,-0.78 6,-0.78 m 11.4,-0.72 -11.4,0.72 m 11.4,-0.72 6.06,-0.78 6,0 m 11.4,0 -11.4,0 m 11.4,0 17.4,0 6.06,-0.72 12.06,0 m 11.4,0 -11.4,0 m 11.4,0 6.06,0 6,-0.78 m 11.4,0 -11.4,0 m 11.4,0 12.06,0 m 11.4,0 -11.4,0 m 11.4,0 12.06,0 m 11.4,0 -11.4,0"
           style="fill:none;stroke:#ff00ff;stroke-width:0.75700003;stroke-linecap:square;stroke-linejoin:miter;stroke-miterlimit:10;stroke-dasharray:none;stroke-opacity:1"
           id="path334"
           inkscape:connector-curvature="0" /><path
           d="m 151.2,656.78 -11.4,-9.12 m 11.4,9.12 6,4.5 6.06,3.84 5.34,3.78 6.06,3 6,2.28 6.06,0.78 5.34,0 6.06,-0.78 6,-1.5 6.06,-3.06 5.34,-3 6.06,-4.56 6,-5.28 6.06,-6.06 m 11.4,-11.4 -11.4,11.4 m 11.4,-11.4 6,-5.28 6.06,-5.28 5.34,-5.34 6.06,-5.28 6,-4.56 6.06,-3.78 m 11.4,-6.84 -11.4,6.84 m 11.4,-6.84 6,-3 6.06,-2.28 6.06,-1.5 5.34,-1.5 m 11.34,-2.28 -11.34,2.28 m 11.34,-2.28 6.06,-0.78 6,-0.78 m 11.4,-0.72 -11.4,0.72 m 11.4,-0.72 6.06,-0.78 6,0 m 11.4,0 -11.4,0 m 11.4,0 12.06,0 m 11.4,0 -11.4,0 m 11.4,0 17.4,0 6.06,-0.72 17.4,0 6.06,-0.78 12.06,0 m 11.4,0 -11.4,0 m 11.4,0 12.06,0 m 11.4,0 -11.4,0"
           style="fill:none;stroke:#ffff00;stroke-width:0.75700003;stroke-linecap:square;stroke-linejoin:miter;stroke-miterlimit:10;stroke-dasharray:none;stroke-opacity:1"
           id="path336"
           inkscape:connector-curvature="0" /><path
           d="m 151.2,657.5 -11.4,-9.06 m 11.4,9.06 6,4.56 6.06,3.78 5.34,3.06 6.06,3 6,2.28 6.06,0.78 5.34,0 6.06,-0.78 6,-1.5 6.06,-3.06 5.34,-3 6.06,-4.56 6,-5.28 6.06,-5.34 m 11.4,-11.34 -11.4,11.34 m 11.4,-11.34 6,-6.06 6.06,-5.28 5.34,-5.34 6.06,-5.28 6,-4.56 6.06,-3.78 5.34,-3 6.06,-3.06 6,-3 6.06,-2.28 6.06,-1.56 5.34,-1.5 5.28,-1.5 6.06,-0.78 6.06,-0.72 6,0 m 11.4,-0.78 -11.4,0.78 m 11.4,-0.78 12.06,0 m 11.4,0 -11.4,0 m 11.4,0 12.06,0 m 11.4,0 -11.4,0 m 11.4,0 6.06,0 6,-0.78 m 11.4,-0.72 -11.4,0.72 m 11.4,-0.72 6.06,0 6,-0.78 m 11.4,-0.72 -11.4,0.72 m 11.4,-0.72 6.06,-0.78 6,0 m 11.4,0 -11.4,0 m 11.4,0 12.06,0 m 11.4,0 -11.4,0"
           style="fill:none;stroke:#00ffff;stroke-width:0.75700003;stroke-linecap:square;stroke-linejoin:miter;stroke-miterlimit:10;stroke-dasharray:none;stroke-opacity:1"
           id="path338"
           inkscape:connector-curvature="0" /><path
           d="m 151.2,654.5 -11.4,-8.34 m 11.4,8.34 6,3.78 6.06,3.78 5.34,3.06 6.06,3 6,2.28 6.06,0.78 5.34,0 6.06,-0.78 6,-1.5 6.06,-3.06 5.34,-3 6.06,-4.56 6,-5.28 6.06,-5.34 m 11.4,-10.56 -11.4,10.56 m 11.4,-10.56 6,-5.34 6.06,-5.28 m 11.4,-9.12 -11.4,9.12 m 11.4,-9.12 6,-4.5 6.06,-3.84 5.34,-3 6.06,-3.06 6,-2.22 6.06,-2.28 6.06,-1.56 5.34,-0.72 5.28,-1.5 12.12,-1.56 6,0 m 11.4,0 -11.4,0 m 11.4,0 12.06,0 m 11.4,0 -11.4,0 m 11.4,0 6.06,0.78 6,0 m 11.4,0 -11.4,0 m 11.4,0 6.06,0 6,-0.78 m 11.4,-1.5 -11.4,1.5 m 11.4,-1.5 6.06,-0.78 6,-0.72 m 11.4,-0.78 -11.4,0.78 m 11.4,-0.78 6.06,-0.72 6,-0.78 23.46,0 m 11.4,0 -11.4,0"
           style="fill:none;stroke:#ff9acc;stroke-width:0.75700003;stroke-linecap:square;stroke-linejoin:miter;stroke-miterlimit:10;stroke-dasharray:none;stroke-opacity:1"
           id="path340"
           inkscape:connector-curvature="0" /><path
           d="m 151.2,655.22 -11.4,-7.56 m 11.4,7.56 6,3.84 6.06,3.78 5.34,3 6.06,3.06 6,1.5 6.06,0.78 5.34,0 6.06,-0.78 6,-1.5 6.06,-3.06 5.34,-3.78 6.06,-3.78 6,-4.56 6.06,-5.28 m 11.4,-10.62 -11.4,10.62 m 11.4,-10.62 6,-5.28 6.06,-5.34 m 11.4,-9.06 -11.4,9.06 m 11.4,-9.06 6,-3.78 6.06,-3.78 5.34,-3.06 6.06,-3 6,-2.28 6.06,-1.5 6.06,-1.56 5.34,-1.5 5.28,-0.78 6.06,0 6.06,-0.72 6,0 m 11.4,0 -11.4,0 m 11.4,0 6.06,0.72 6,0.78 m 11.4,0.78 -11.4,-0.78 m 11.4,0.78 6.06,0.72 6,0 m 11.4,0 -11.4,0 m 11.4,0 6.06,-0.72 6,-0.78 m 11.4,-2.28 -11.4,2.28 m 11.4,-2.28 6.06,-0.72 6,-1.56 m 11.4,-2.28 -11.4,2.28 m 11.4,-2.28 6.06,-0.72 6,-0.78 m 11.4,-0.72 -11.4,0.72 m 11.4,-0.72 6.06,-0.78 6,0 m 11.4,0 -11.4,0"
           style="fill:none;stroke:#800000;stroke-width:0.75700003;stroke-linecap:square;stroke-linejoin:miter;stroke-miterlimit:10;stroke-dasharray:none;stroke-opacity:1"
           id="path342"
           inkscape:connector-curvature="0" /><path
           d="m 139.8,646.16 5.34,3.78 6.06,3.78 6,3.06 6.06,3 5.34,2.28 6.06,2.28 6,1.5 6.06,0.78 5.34,0 6.06,-0.78 6,-1.5 6.06,-2.28 5.34,-3.78 6.06,-3.78 6,-4.56 6.06,-4.56 5.34,-4.5 6.06,-5.34 6,-4.5 6.06,-4.56 5.34,-4.56 6.06,-3.78 6,-3.78 6.06,-3.06 5.34,-2.28 6.06,-2.22 6,-2.28 6.06,-1.56 6.06,-0.72 5.34,-0.78 m 11.34,0 -11.34,0 m 11.34,0 6.06,0 6,0.78 5.34,0 6.06,0.72 6.06,0.78 6,1.5 m 11.4,2.28 -11.4,-2.28 m 11.4,2.28 6.06,0.78 6,0.72 11.4,0 6.06,-0.72 6,-1.5 5.34,-2.28 6.06,-2.28 6.06,-3.06 6,-2.28 m 11.4,-3.78 -11.4,3.78 m 11.4,-3.78 6.06,-1.5 6,-0.78 m 11.4,-1.5 -11.4,1.5 m 11.4,-1.5 6.06,-0.72 6,0 m 11.4,-0.78 -11.4,0.78"
           style="fill:none;stroke:#333333;stroke-width:0.75700003;stroke-linecap:square;stroke-linejoin:miter;stroke-miterlimit:10;stroke-dasharray:none;stroke-opacity:1"
           id="path344"
           inkscape:connector-curvature="0" /><path
           d="m 139.8,644.66 5.34,3 6.06,3.06 6,2.28 6.06,2.22 m 11.4,3.06 -11.4,-3.06 m 11.4,3.06 6,0.78 6.06,0.72 5.34,-0.72 6.06,-0.78 6,-1.5 6.06,-2.28 5.34,-3.06 6.06,-3 6,-3.78 6.06,-3.78 m 11.4,-8.34 -11.4,8.34 m 11.4,-8.34 6,-3.78 6.06,-3.78 5.34,-3.84 6.06,-3 6,-3.06 6.06,-2.22 5.34,-1.56 6.06,-1.5 6,-0.78 6.06,-0.72 m 11.4,0 -11.4,0 m 11.4,0 5.28,0.72 6.06,0.78 6.06,0.78 6,1.5 5.34,1.5 6.06,2.28 6.06,2.28 6,2.28 m 11.4,4.56 -11.4,-4.56 m 11.4,4.56 6.06,2.22 6,1.56 5.34,0.72 6.06,-0.72 6.06,-2.28 6,-3.06 5.34,-3.78 6.06,-4.56 6.06,-4.5 6,-4.56 5.34,-3.78 6.06,-3.78 6.06,-2.28 6,-2.28 m 11.4,-3.06 -11.4,3.06 m 11.4,-3.06 6.06,-0.72 6,-0.78 m 11.4,-0.72 -11.4,0.72"
           style="fill:none;stroke:#65659a;stroke-width:0.75700003;stroke-linecap:square;stroke-linejoin:miter;stroke-miterlimit:10;stroke-dasharray:none;stroke-opacity:1"
           id="path346"
           inkscape:connector-curvature="0" /><path
           d="m 139.8,642.38 5.34,2.28 6.06,2.28 6,1.5 6.06,0.72 m 11.4,0.78 -11.4,-0.78 m 11.4,0.78 12.06,0 m 11.4,-1.5 -11.4,1.5 m 11.4,-1.5 6,-1.5 6.06,-1.56 5.34,-2.28 6.06,-3 6,-3 6.06,-3.06 m 11.4,-6.06 -11.4,6.06 m 11.4,-6.06 6,-3 6.06,-2.28 5.34,-3.06 6.06,-2.28 6,-1.5 6.06,-0.78 5.34,-0.72 6.06,-0.78 6,0 6.06,0.78 m 11.4,2.28 -11.4,-2.28 m 22.74,6.06 -11.34,-3.78 m 11.34,3.78 6.06,2.28 6,3 m 11.4,6.06 -11.4,-6.06 m 11.4,6.06 6.06,3.06 6,3.78 5.34,3.78 6.06,3.78 6.06,3.78 3,1.5 3,0.78 5.34,0.78 6.06,-0.78 3,-1.5 3.06,-1.56 6,-4.5 3.06,-3.06 2.28,-3 6.06,-7.56 6.06,-7.62 6,-6.78 5.34,-6.84 6.06,-5.28 6.06,-4.56 6,-3.06 5.34,-2.22 6.06,-2.28 6.06,-1.56 6,-1.5 6.06,-0.72 5.34,0"
           style="fill:none;stroke:#ff9a00;stroke-width:0.75700003;stroke-linecap:square;stroke-linejoin:miter;stroke-miterlimit:10;stroke-dasharray:none;stroke-opacity:1"
           id="path348"
           inkscape:connector-curvature="0" /><path
           d="m 139.8,641.6 5.34,1.5 6.06,1.56 6,0.72 6.06,0 m 11.4,-0.72 -11.4,0.72 m 11.4,-0.72 6,-0.78 6.06,-0.78 5.34,-0.72 6.06,-0.78 6,-1.5 6.06,-1.5 m 11.4,-3.78 -11.4,3.78 m 11.4,-3.78 6,-2.28 6.06,-2.28 5.34,-3.06 6.06,-2.22 6,-2.28 6.06,-1.56 m 11.4,-3 -11.4,3 m 11.4,-3 6,-0.78 6.06,-0.72 5.34,0 6.06,0.72 6,0.78 6.06,1.5 m 11.4,3.78 -11.4,-3.78 m 11.4,3.78 5.28,2.28 6.06,3.06 6.06,3.78 6,3.78 m 11.4,8.34 -11.4,-8.34 m 11.4,8.34 6.06,4.5 6,4.56 5.34,5.34 6.06,4.5 6.06,4.56 3,1.5 3,1.56 5.34,1.5 3,0 3.06,-0.78 3,-1.5 3.06,-2.28 3,-3.78 3,-3.06 3.06,-3.78 2.28,-4.5 6.06,-9.12 6.06,-9.84 6,-9.06 5.34,-8.34 6.06,-6.84 6.06,-5.28 6,-4.56 5.34,-3.78 6.06,-2.28 6.06,-1.5 6,-1.56 6.06,-0.72 5.34,-0.78"
           style="fill:none;stroke:#008000;stroke-width:0.75700003;stroke-linecap:square;stroke-linejoin:miter;stroke-miterlimit:10;stroke-dasharray:none;stroke-opacity:1"
           id="path350"
           inkscape:connector-curvature="0" /><path
           d="m 139.8,639.32 11.4,0 6,-0.72 6.06,-1.5 m 11.4,-3.06 -11.4,3.06 m 11.4,-3.06 6,-2.28 6.06,-1.5 5.34,-1.5 6.06,-0.78 6,-0.78 6.06,-1.5 m 11.4,-2.28 -11.4,2.28 m 11.4,-2.28 6,-1.5 6.06,-0.78 m 11.4,-1.5 -11.4,1.5 m 11.4,-1.5 6,-0.72 6.06,-0.78 5.34,0 6.06,0.78 6,0.72 6.06,0.78 5.34,1.5 6.06,2.28 6,2.28 6.06,3 6.06,3.78 5.34,3.84 m 11.34,9.06 -11.34,-9.06 m 11.34,9.06 6.06,5.28 6,5.34 5.34,6.06 6.06,6.78 6.06,6.84 6,6.84 5.34,7.56 6.06,6.78 6.06,6.84 6,4.56 3.06,1.5 5.28,0 3.06,-1.5 3,-2.28 3.06,-3.78 3,-4.56 3,-4.56 3.06,-5.28 2.28,-6.84 12.12,-27.24 3,-6.84 3,-6.06 5.34,-11.34 3,-6.06 3.06,-4.56 3,-4.56 3.06,-3.78 6,-6.06 5.34,-5.28 6.06,-3.78 6.06,-3.06 6,-1.5 6.06,-1.5 5.34,-0.78"
           style="fill:none;stroke:#0000ff;stroke-width:0.75700003;stroke-linecap:square;stroke-linejoin:miter;stroke-miterlimit:10;stroke-dasharray:none;stroke-opacity:1"
           id="path352"
           inkscape:connector-curvature="0" /><path
           d="m 139.8,636.32 5.34,0 6.06,-0.78 6,-2.28 6.06,-2.22 5.34,-3.06 6.06,-2.28 6,-2.28 6.06,-1.5 m 11.4,-3 -11.4,3 m 11.4,-3 6,-0.78 6.06,-0.78 m 11.4,-1.5 -11.4,1.5 m 11.4,-1.5 6,-0.78 6.06,0 m 11.4,0 -11.4,0 m 11.4,0 6,0 6.06,0.78 m 11.4,2.28 -11.4,-2.28 m 11.4,2.28 6,1.5 6.06,2.28 5.34,2.28 6.06,2.28 6,3.78 6.06,3.78 m 11.4,9.06 -11.4,-9.06 m 11.4,9.06 5.28,5.34 6.06,5.28 6.06,6.06 6,6.84 m 11.4,14.4 -11.4,-14.4 m 11.4,14.4 6.06,7.56 6,8.34 5.34,8.34 6.06,8.28 6.06,7.62 3,3 3,2.28 3.06,1.5 5.28,0 3.06,-1.5 3,-3 3.06,-3.84 3,-4.5 3,-5.34 3.06,-6.06 2.28,-7.56 3,-8.34 3.06,-7.56 3,-7.56 3.06,-8.34 3,-7.56 3,-7.62 5.34,-13.62 3,-6.06 3.06,-5.28 3,-4.56 3.06,-4.56 6,-7.56 5.34,-5.28 6.06,-4.56 6.06,-3 6,-2.28 6.06,-1.56 5.34,-0.72"
           style="fill:none;stroke:#ff0000;stroke-width:0.75700003;stroke-linecap:square;stroke-linejoin:miter;stroke-miterlimit:10;stroke-dasharray:none;stroke-opacity:1"
           id="path354"
           inkscape:connector-curvature="0" /><text
           transform="matrix(1,0,0,-1,129.24,578.0004)"
           style="font-variant:normal;font-weight:normal;font-size:8.33129978px;font-family:Arial;-inkscape-font-specification:ArialMT;writing-mode:lr-tb;fill:#000000;fill-opacity:1;fill-rule:nonzero;stroke:none"
           id="text356"><tspan
             x="0"
             y="0"
             id="tspan358">0</tspan></text>
<text
           transform="matrix(1,0,0,-1,122.4,594.6805)"
           style="font-variant:normal;font-weight:normal;font-size:8.33129978px;font-family:Arial;-inkscape-font-specification:ArialMT;writing-mode:lr-tb;fill:#000000;fill-opacity:1;fill-rule:nonzero;stroke:none"
           id="text360"><tspan
             x="0 4.6322026 6.9483042"
             y="0"
             sodipodi:role="line"
             id="tspan362">0.2</tspan></text>
<text
           transform="matrix(1,0,0,-1,122.4,610.5808)"
           style="font-variant:normal;font-weight:normal;font-size:8.33129978px;font-family:Arial;-inkscape-font-specification:ArialMT;writing-mode:lr-tb;fill:#000000;fill-opacity:1;fill-rule:nonzero;stroke:none"
           id="text364"><tspan
             x="0 4.6322026 6.9483042"
             y="0"
             sodipodi:role="line"
             id="tspan366">0.4</tspan></text>
<text
           transform="matrix(1,0,0,-1,122.4,627.2009)"
           style="font-variant:normal;font-weight:normal;font-size:8.33129978px;font-family:Arial;-inkscape-font-specification:ArialMT;writing-mode:lr-tb;fill:#000000;fill-opacity:1;fill-rule:nonzero;stroke:none"
           id="text368"><tspan
             x="0 4.6322026 6.9483042"
             y="0"
             sodipodi:role="line"
             id="tspan370">0.6</tspan></text>
<text
           transform="matrix(1,0,0,-1,122.4,643.1012)"
           style="font-variant:normal;font-weight:normal;font-size:8.33129978px;font-family:Arial;-inkscape-font-specification:ArialMT;writing-mode:lr-tb;fill:#000000;fill-opacity:1;fill-rule:nonzero;stroke:none"
           id="text372"><tspan
             x="0 4.6322026 6.9483042"
             y="0"
             sodipodi:role="line"
             id="tspan374">0.8</tspan></text>
<text
           transform="matrix(1,0,0,-1,129.24,659.7813)"
           style="font-variant:normal;font-weight:normal;font-size:8.33129978px;font-family:Arial;-inkscape-font-specification:ArialMT;writing-mode:lr-tb;fill:#000000;fill-opacity:1;fill-rule:nonzero;stroke:none"
           id="text376"><tspan
             x="0"
             y="0"
             id="tspan378">1</tspan></text>
<text
           transform="matrix(1,0,0,-1,122.4,676.4614)"
           style="font-variant:normal;font-weight:normal;font-size:8.33129978px;font-family:Arial;-inkscape-font-specification:ArialMT;writing-mode:lr-tb;fill:#000000;fill-opacity:1;fill-rule:nonzero;stroke:none"
           id="text380"><tspan
             x="0 4.6322026 6.9483042"
             y="0"
             sodipodi:role="line"
             id="tspan382">1.2</tspan></text>
<text
           transform="matrix(1,0,0,-1,122.4,692.3617)"
           style="font-variant:normal;font-weight:normal;font-size:8.33129978px;font-family:Arial;-inkscape-font-specification:ArialMT;writing-mode:lr-tb;fill:#000000;fill-opacity:1;fill-rule:nonzero;stroke:none"
           id="text384"><tspan
             x="0 4.6322026 6.9483042"
             y="0"
             sodipodi:role="line"
             id="tspan386">1.4</tspan></text>
<text
           transform="matrix(1,0,0,-1,122.4,709.0418)"
           style="font-variant:normal;font-weight:normal;font-size:8.33129978px;font-family:Arial;-inkscape-font-specification:ArialMT;writing-mode:lr-tb;fill:#000000;fill-opacity:1;fill-rule:nonzero;stroke:none"
           id="text388"><tspan
             x="0 4.6322026 6.9483042"
             y="0"
             sodipodi:role="line"
             id="tspan390">1.6</tspan></text>
<text
           transform="matrix(1,0,0,-1,122.4,724.942)"
           style="font-variant:normal;font-weight:normal;font-size:8.33129978px;font-family:Arial;-inkscape-font-specification:ArialMT;writing-mode:lr-tb;fill:#000000;fill-opacity:1;fill-rule:nonzero;stroke:none"
           id="text392"><tspan
             x="0 4.6322026 6.9483042"
             y="0"
             sodipodi:role="line"
             id="tspan394">1.8</tspan></text>
<text
           transform="matrix(1,0,0,-1,129.24,741.6221)"
           style="font-variant:normal;font-weight:normal;font-size:8.33129978px;font-family:Arial;-inkscape-font-specification:ArialMT;writing-mode:lr-tb;fill:#000000;fill-opacity:1;fill-rule:nonzero;stroke:none"
           id="text396"><tspan
             x="0"
             y="0"
             id="tspan398">2</tspan></text>
<text
           transform="matrix(1,0,0,-1,133.0199,565.8817)"
           style="font-variant:normal;font-weight:normal;font-size:8.33129978px;font-family:Arial;-inkscape-font-specification:ArialMT;writing-mode:lr-tb;fill:#000000;fill-opacity:1;fill-rule:nonzero;stroke:none"
           id="text400"><tspan
             x="0 4.6322026 9.2644053 58.256615 62.888817 67.521019 117.29304 121.92524 126.55745 175.54965 180.18185 184.81406 233.80544 238.43764 243.06984 292.84186 297.47406 302.10626 351.09848 355.73068 360.36288"
             y="0"
             sodipodi:role="line"
             id="tspan402">400450500550600650700</tspan></text>
<text
           transform="matrix(0,1,1,0,114.84,636.3203)"
           style="font-variant:normal;font-weight:bold;font-size:8.33129978px;font-family:Arial;-inkscape-font-specification:Arial-BoldMT;writing-mode:lr-tb;fill:#000000;fill-opacity:1;fill-rule:nonzero;stroke:none"
           id="text408"><tspan
             sodipodi:role="line"
             id="tspan410"
             x="0"
             y="0">Absorption</tspan></text>
<path
           d="m 497.34,758.66 -49.92,0 0,-136.32 49.92,0 0,136.32 z"
           style="fill:#ffffff;fill-opacity:1;fill-rule:evenodd;stroke:#000000;stroke-width:0.75700003;stroke-linecap:square;stroke-linejoin:miter;stroke-miterlimit:10;stroke-dasharray:none;stroke-opacity:1"
           id="path412"
           inkscape:connector-curvature="0" /><path
           d="m 455.4,752.96 18.18,0 -18.18,0"
           style="fill:#ffffff;fill-opacity:1;fill-rule:evenodd;stroke:none"
           id="path414"
           inkscape:connector-curvature="0" /><path
           d="m 473.58,752.96 -18.18,0"
           style="fill:none;stroke:#000080;stroke-width:0.75700003;stroke-linecap:square;stroke-linejoin:miter;stroke-miterlimit:10;stroke-dasharray:none;stroke-opacity:1"
           id="path416"
           inkscape:connector-curvature="0" /><text
           transform="matrix(1,0,0,-1,475.8,750.6803)"
           style="font-variant:normal;font-weight:normal;font-size:8.33129978px;font-family:Arial;-inkscape-font-specification:ArialMT;writing-mode:lr-tb;fill:#000000;fill-opacity:1;fill-rule:nonzero;stroke:none"
           id="text418"><tspan
             x="0 4.6322026 6.9483042 11.580507"
             y="0"
             sodipodi:role="line"
             id="tspan420">2.12</tspan></text>
<path
           d="m 455.4,741.62 18.18,0 -18.18,0"
           style="fill:#ffffff;fill-opacity:1;fill-rule:evenodd;stroke:none"
           id="path422"
           inkscape:connector-curvature="0" /><path
           d="m 473.58,741.62 -18.18,0"
           style="fill:none;stroke:#ff00ff;stroke-width:0.75700003;stroke-linecap:square;stroke-linejoin:miter;stroke-miterlimit:10;stroke-dasharray:none;stroke-opacity:1"
           id="path424"
           inkscape:connector-curvature="0" /><text
           transform="matrix(1,0,0,-1,475.8,739.3403)"
           style="font-variant:normal;font-weight:normal;font-size:8.33129978px;font-family:Arial;-inkscape-font-specification:ArialMT;writing-mode:lr-tb;fill:#000000;fill-opacity:1;fill-rule:nonzero;stroke:none"
           id="text426"><tspan
             x="0 4.6322026 6.9483042"
             y="0"
             sodipodi:role="line"
             id="tspan428">2.4</tspan></text>
<path
           d="m 455.4,730.22 18.18,0 -18.18,0"
           style="fill:#ffffff;fill-opacity:1;fill-rule:evenodd;stroke:none"
           id="path430"
           inkscape:connector-curvature="0" /><path
           d="m 473.58,730.22 -18.18,0"
           style="fill:none;stroke:#ffff00;stroke-width:0.75700003;stroke-linecap:square;stroke-linejoin:miter;stroke-miterlimit:10;stroke-dasharray:none;stroke-opacity:1"
           id="path432"
           inkscape:connector-curvature="0" /><text
           transform="matrix(1,0,0,-1,475.8,727.9403)"
           style="font-variant:normal;font-weight:normal;font-size:8.33129978px;font-family:Arial;-inkscape-font-specification:ArialMT;writing-mode:lr-tb;fill:#000000;fill-opacity:1;fill-rule:nonzero;stroke:none"
           id="text434"><tspan
             x="0 4.6322026 6.9483042 11.580507"
             y="0"
             sodipodi:role="line"
             id="tspan436">2.64</tspan></text>
<path
           d="m 455.4,719.6 18.18,0 -18.18,0"
           style="fill:#ffffff;fill-opacity:1;fill-rule:evenodd;stroke:none"
           id="path438"
           inkscape:connector-curvature="0" /><path
           d="m 473.58,719.6 -18.18,0"
           style="fill:none;stroke:#00ffff;stroke-width:0.75700003;stroke-linecap:square;stroke-linejoin:miter;stroke-miterlimit:10;stroke-dasharray:none;stroke-opacity:1"
           id="path440"
           inkscape:connector-curvature="0" /><text
           transform="matrix(1,0,0,-1,475.8,717.3803)"
           style="font-variant:normal;font-weight:normal;font-size:8.33129978px;font-family:Arial;-inkscape-font-specification:ArialMT;writing-mode:lr-tb;fill:#000000;fill-opacity:1;fill-rule:nonzero;stroke:none"
           id="text442"><tspan
             x="0 4.6322026 6.9483042 11.580507"
             y="0"
             sodipodi:role="line"
             id="tspan444">2.94</tspan></text>
<path
           d="m 455.4,708.26 18.18,0 -18.18,0"
           style="fill:#ffffff;fill-opacity:1;fill-rule:evenodd;stroke:none"
           id="path446"
           inkscape:connector-curvature="0" /><path
           d="m 473.58,708.26 -18.18,0"
           style="fill:none;stroke:#ff9acc;stroke-width:0.75700003;stroke-linecap:square;stroke-linejoin:miter;stroke-miterlimit:10;stroke-dasharray:none;stroke-opacity:1"
           id="path448"
           inkscape:connector-curvature="0" /><text
           transform="matrix(1,0,0,-1,475.8,705.9803)"
           style="font-variant:normal;font-weight:normal;font-size:8.33129978px;font-family:Arial;-inkscape-font-specification:ArialMT;writing-mode:lr-tb;fill:#000000;fill-opacity:1;fill-rule:nonzero;stroke:none"
           id="text450"><tspan
             x="0 4.6322026 6.9483042"
             y="0"
             sodipodi:role="line"
             id="tspan452">3.2</tspan></text>
<path
           d="m 455.4,696.92 18.18,0 -18.18,0"
           style="fill:#ffffff;fill-opacity:1;fill-rule:evenodd;stroke:none"
           id="path454"
           inkscape:connector-curvature="0" /><path
           d="m 473.58,696.92 -18.18,0"
           style="fill:none;stroke:#800000;stroke-width:0.75700003;stroke-linecap:square;stroke-linejoin:miter;stroke-miterlimit:10;stroke-dasharray:none;stroke-opacity:1"
           id="path456"
           inkscape:connector-curvature="0" /><text
           transform="matrix(1,0,0,-1,475.8,694.6403)"
           style="font-variant:normal;font-weight:normal;font-size:8.33129978px;font-family:Arial;-inkscape-font-specification:ArialMT;writing-mode:lr-tb;fill:#000000;fill-opacity:1;fill-rule:nonzero;stroke:none"
           id="text458"><tspan
             x="0 4.6322026 6.9483042"
             y="0"
             sodipodi:role="line"
             id="tspan460">3.5</tspan></text>
<path
           d="m 455.4,685.52 18.18,0 -18.18,0"
           style="fill:#ffffff;fill-opacity:1;fill-rule:evenodd;stroke:none"
           id="path462"
           inkscape:connector-curvature="0" /><path
           d="m 473.58,685.52 -18.18,0"
           style="fill:none;stroke:#333333;stroke-width:0.75700003;stroke-linecap:square;stroke-linejoin:miter;stroke-miterlimit:10;stroke-dasharray:none;stroke-opacity:1"
           id="path464"
           inkscape:connector-curvature="0" /><text
           transform="matrix(1,0,0,-1,475.8,683.3003)"
           style="font-variant:normal;font-weight:normal;font-size:8.33129978px;font-family:Arial;-inkscape-font-specification:ArialMT;writing-mode:lr-tb;fill:#000000;fill-opacity:1;fill-rule:nonzero;stroke:none"
           id="text466"><tspan
             x="0 4.6322026 6.9483042"
             y="0"
             sodipodi:role="line"
             id="tspan468">3.8</tspan></text>
<path
           d="m 455.4,674.18 18.18,0 -18.18,0"
           style="fill:#ffffff;fill-opacity:1;fill-rule:evenodd;stroke:none"
           id="path470"
           inkscape:connector-curvature="0" /><path
           d="m 473.58,674.18 -18.18,0"
           style="fill:none;stroke:#65659a;stroke-width:0.75700003;stroke-linecap:square;stroke-linejoin:miter;stroke-miterlimit:10;stroke-dasharray:none;stroke-opacity:1"
           id="path472"
           inkscape:connector-curvature="0" /><text
           transform="matrix(1,0,0,-1,475.8,671.9003)"
           style="font-variant:normal;font-weight:normal;font-size:8.33129978px;font-family:Arial;-inkscape-font-specification:ArialMT;writing-mode:lr-tb;fill:#000000;fill-opacity:1;fill-rule:nonzero;stroke:none"
           id="text474"><tspan
             x="0 4.6322026 6.9483042 11.580507"
             y="0"
             sodipodi:role="line"
             id="tspan476">4.13</tspan></text>
<path
           d="m 455.4,662.84 18.18,0 -18.18,0"
           style="fill:#ffffff;fill-opacity:1;fill-rule:evenodd;stroke:none"
           id="path478"
           inkscape:connector-curvature="0" /><path
           d="m 473.58,662.84 -18.18,0"
           style="fill:none;stroke:#ff9a00;stroke-width:0.75700003;stroke-linecap:square;stroke-linejoin:miter;stroke-miterlimit:10;stroke-dasharray:none;stroke-opacity:1"
           id="path480"
           inkscape:connector-curvature="0" /><text
           transform="matrix(1,0,0,-1,475.8,660.5603)"
           style="font-variant:normal;font-weight:normal;font-size:8.33129978px;font-family:Arial;-inkscape-font-specification:ArialMT;writing-mode:lr-tb;fill:#000000;fill-opacity:1;fill-rule:nonzero;stroke:none"
           id="text482"><tspan
             x="0 4.6322026 6.9483042"
             y="0"
             sodipodi:role="line"
             id="tspan484">4.6</tspan></text>
<path
           d="m 455.4,652.22 18.18,0 -18.18,0"
           style="fill:#ffffff;fill-opacity:1;fill-rule:evenodd;stroke:none"
           id="path486"
           inkscape:connector-curvature="0" /><path
           d="m 473.58,652.22 -18.18,0"
           style="fill:none;stroke:#008000;stroke-width:0.75700003;stroke-linecap:square;stroke-linejoin:miter;stroke-miterlimit:10;stroke-dasharray:none;stroke-opacity:1"
           id="path488"
           inkscape:connector-curvature="0" /><text
           transform="matrix(1,0,0,-1,475.8,649.9403)"
           style="font-variant:normal;font-weight:normal;font-size:8.33129978px;font-family:Arial;-inkscape-font-specification:ArialMT;writing-mode:lr-tb;fill:#000000;fill-opacity:1;fill-rule:nonzero;stroke:none"
           id="text490"><tspan
             x="0 4.6322026 6.9483042"
             y="0"
             sodipodi:role="line"
             id="tspan492">4.9</tspan></text>
<path
           d="m 455.4,640.88 18.18,0 -18.18,0"
           style="fill:#ffffff;fill-opacity:1;fill-rule:evenodd;stroke:none"
           id="path494"
           inkscape:connector-curvature="0" /><path
           d="m 473.58,640.88 -18.18,0"
           style="fill:none;stroke:#0000ff;stroke-width:0.75700003;stroke-linecap:square;stroke-linejoin:miter;stroke-miterlimit:10;stroke-dasharray:none;stroke-opacity:1"
           id="path496"
           inkscape:connector-curvature="0" /><text
           transform="matrix(1,0,0,-1,475.8,638.6003)"
           style="font-variant:normal;font-weight:normal;font-size:8.33129978px;font-family:Arial;-inkscape-font-specification:ArialMT;writing-mode:lr-tb;fill:#000000;fill-opacity:1;fill-rule:nonzero;stroke:none"
           id="text498"><tspan
             x="0 4.6322026 6.9483042 11.580507"
             y="0"
             sodipodi:role="line"
             id="tspan500">5.17</tspan></text>
<path
           d="m 455.4,629.48 18.18,0 -18.18,0"
           style="fill:#ffffff;fill-opacity:1;fill-rule:evenodd;stroke:none"
           id="path502"
           inkscape:connector-curvature="0" /><path
           d="m 473.58,629.48 -18.18,0"
           style="fill:none;stroke:#ff0000;stroke-width:0.75700003;stroke-linecap:square;stroke-linejoin:miter;stroke-miterlimit:10;stroke-dasharray:none;stroke-opacity:1"
           id="path504"
           inkscape:connector-curvature="0" /><text
           transform="matrix(1,0,0,-1,475.8,627.2003)"
           style="font-variant:normal;font-weight:normal;font-size:8.33129978px;font-family:Arial;-inkscape-font-specification:ArialMT;writing-mode:lr-tb;fill:#000000;fill-opacity:1;fill-rule:nonzero;stroke:none"
           id="text506"><tspan
             x="0 4.6322026 6.9483042"
             y="0"
             sodipodi:role="line"
             id="tspan508">5.9</tspan></text>
<text
           transform="matrix(1,0,0,-1,431.16,750.6803)"
           style="font-variant:normal;font-weight:bold;font-size:8.33129978px;font-family:Arial;-inkscape-font-specification:Arial-BoldMT;writing-mode:lr-tb;fill:#000000;fill-opacity:1;fill-rule:nonzero;stroke:none"
           id="text512"><tspan
             x="0 5.0904245"
             y="0"
             sodipodi:role="line"
             id="tspan514">pH</tspan></text>
<text
           xml:space="preserve"
           style="font-style:normal;font-weight:normal;font-size:32px;line-height:125%;font-family:sans-serif;letter-spacing:0px;word-spacing:0px;fill:#000000;fill-opacity:1;stroke:none;stroke-width:1px;stroke-linecap:butt;stroke-linejoin:miter;stroke-opacity:1"
           x="264.94473"
           y="-552.13171"
           id="text4841"
           sodipodi:linespacing="125%"
           transform="scale(1,-1)"><tspan
             sodipodi:role="line"
             id="tspan4843"
             x="264.94473"
             y="-552.13171"
             style="font-style:normal;font-variant:normal;font-weight:bold;font-stretch:normal;font-size:8.33300018px;font-family:Arial;-inkscape-font-specification:'Arial Bold'">Wellenlänge / nm</tspan></text>
</g></g></g></svg>