<?xml version="1.0" encoding="UTF-8" standalone="no"?>
<!-- Created with Inkscape (http://www.inkscape.org/) -->

<svg
   xmlns:dc="http://purl.org/dc/elements/1.1/"
   xmlns:cc="http://creativecommons.org/ns#"
   xmlns:rdf="http://www.w3.org/1999/02/22-rdf-syntax-ns#"
   xmlns:svg="http://www.w3.org/2000/svg"
   xmlns="http://www.w3.org/2000/svg"
   xmlns:sodipodi="http://sodipodi.sourceforge.net/DTD/sodipodi-0.dtd"
   xmlns:inkscape="http://www.inkscape.org/namespaces/inkscape"
   width="744.09448819"
   height="1052.3622047"
   id="svg2"
   version="1.1"
   inkscape:version="0.48.4 r9939"
   sodipodi:docname="sign_line.eps">
  <defs
     id="defs4">
    <filter
       inkscape:collect="always"
       id="filter3866"
       x="-0.1610201"
       width="1.3220402"
       y="-0.28625794"
       height="1.5725159">
      <feGaussianBlur
         inkscape:collect="always"
         stdDeviation="0.28753589"
         id="feGaussianBlur3868" />
    </filter>
  </defs>
  <sodipodi:namedview
     id="base"
     pagecolor="#ffffff"
     bordercolor="#666666"
     borderopacity="1.0"
     inkscape:pageopacity="0.0"
     inkscape:pageshadow="2"
     inkscape:zoom="22.4"
     inkscape:cx="602.25377"
     inkscape:cy="867.93083"
     inkscape:document-units="px"
     inkscape:current-layer="layer1"
     showgrid="false"
     inkscape:window-width="1273"
     inkscape:window-height="721"
     inkscape:window-x="2586"
     inkscape:window-y="561"
     inkscape:window-maximized="0" />
  <metadata
     id="metadata7">
    <rdf:RDF>
      <cc:Work
         rdf:about="">
        <dc:format>image/svg+xml</dc:format>
        <dc:type
           rdf:resource="http://purl.org/dc/dcmitype/StillImage" />
        <dc:title></dc:title>
      </cc:Work>
    </rdf:RDF>
  </metadata>
  <g
     inkscape:label="Layer 1"
     inkscape:groupmode="layer"
     id="layer1">
    <path
       style="fill:none;stroke:#000000;stroke-width:0.69999999999999996;stroke-linecap:round;stroke-linejoin:miter;stroke-opacity:1;stroke-miterlimit:4;stroke-dasharray:none"
       d="m 88.571429,178.07647 305.714281,0 c 0,0 55.01139,1.62828 71.64715,2.52407 20.36893,1.09681 25.8276,2.88251 36.13833,2.52538 13.27853,-0.45993 14.49782,4.78317 19.93783,4.39775 5.05635,-0.35823 6.80321,-4.52682 9.59242,-5.6506 2.66987,-1.0757 7.07651,-2.25602 11.86063,-1.77761 10.10152,1.01015 -3.52228,23.46709 9.59645,24.24366 13.11705,0.77646 -3.53554,-24.74873 6.56599,-24.74873 10.10152,0 13.53334,-0.0807 18.18275,3.53553 4.54568,3.53553 -8.5863,42.93148 8.58629,42.93148 17.17259,0 -6.56599,-40.4061 0.50508,-43.43656 6.56532,-2.8137 21.71828,-2.02031 21.71828,-2.02031"
       id="path2985"
       inkscape:connector-curvature="0"
       sodipodi:nodetypes="ccssssssssssc"
       inkscape:export-filename="/home/johannes/Google Drive/Uni HD/Bachelorarbeit/git_repo/Bachelorarbeit_jhaux/plot/sig_line.eps.png"
       inkscape:export-xdpi="300"
       inkscape:export-ydpi="300" />
  </g>
</svg>
